<svg xmlns="http://www.w3.org/2000/svg" viewBox="0 0 40 30.79"><defs><style>.cls-1{fill:#fff;}</style></defs><g id="Слой_2" data-name="Слой 2"><g id="Слой_1-2" data-name="Слой 1"><path class="cls-1" d="M28.15,6c0-1.35,0-2.51,0-3.67,0-.58.19-.75.75-.73,1,0,2.06,0,3.08,0,.59,0,.73.21.72.76,0,2.16,0,4.33,0,6.5a1.13,1.13,0,0,0,.51,1c2.08,1.56,4.13,3.15,6.2,4.73.2.15.39.31.63.51l-1.62,2.06-5.66-4.34c0,.39,0,.64,0,.89,0,5.41,0,10.82,0,16.22,0,.67-.19.85-.85.84-2.9,0-5.8,0-8.69,0-.25,0-.49,0-.79,0V19.89H17.68V30.72H7.32V12.83L1.57,17.18,0,15.13l.63-.52Q10.05,7.44,19.44.25a.77.77,0,0,1,1.12,0Q24,2.88,27.41,5.48ZM30,28.08a3.67,3.67,0,0,0,0-.39c0-5.47,0-11,0-16.42a1.21,1.21,0,0,0-.46-.81c-3-2.34-6-4.64-9-7a.68.68,0,0,0-1,0Q15,7,10.47,10.4a1.12,1.12,0,0,0-.5,1c0,5.32,0,10.63,0,15.94,0,.24,0,.48,0,.72h5V17.22H25V28.08Z"/><path class="cls-1" d="M23.76,12H16.22a2.94,2.94,0,0,1,1.52-2.64A4,4,0,0,1,22,9.21,2.92,2.92,0,0,1,23.76,12Z"/></g></g></svg>