<svg xmlns="http://www.w3.org/2000/svg" viewBox="0 0 40 32.1"><defs><style>.cls-1{fill:#fff;}</style></defs><g id="Слой_2" data-name="Слой 2"><g id="Слой_1-2" data-name="Слой 1"><path class="cls-1" d="M19.92,32.09H3.59a3.66,3.66,0,0,1-2.53-.76A2.75,2.75,0,0,1,0,29.18Q0,16,0,2.91A2.91,2.91,0,0,1,2.47.1,9.06,9.06,0,0,1,3.74,0H36.26A5.57,5.57,0,0,1,38,.25a2.85,2.85,0,0,1,2,2.81q0,13,0,26c0,1.89-1.35,3.05-3.51,3.05Zm17.09-3V5.76c-.35.22-.6.36-.85.53C31,9.67,25.84,13,20.7,16.45a1.08,1.08,0,0,1-1.4,0Q11.59,11.35,3.84,6.29C3.58,6.12,3.31,6,3,5.76V29.14ZM3.14,3c.28.22.4.34.54.43q7.9,5.14,15.81,10.31c.47.31.76.15,1.13-.09L36.2,3.48c.19-.13.37-.29.69-.53Z"/></g></g></svg>